#!OML:ASF X:\für Bonn\!DataBase\2005_08_12_Daniel\c3d\Daniel.ASF
:FULLY-SPECIFIED
:DEGREES
52
root 22.6682 20.4854 0.813109 336.376 80.9051 345.416
lowerback 22.59 -0.676059 1.30344
upperback 5.04755 -0.347397 -1.03216
thorax -7.0857 -0.0584825 -1.78722
lowerneck 3.71153 3.45443 -7.81063
upperneck 10.9864 4.67832 1.51797
head 2.66944 2.16843 1.88584
rclavicle 7.45443e-015 7.95139e-016
rhumerus -47.2836 28.6684 -85.1257
rradius 88.0416
rwrist 8.4337
rhand -11.1541 16.4575
rfingers 7.12502
rthumb 14.872 -12.9887
lclavicle 7.45443e-015 7.95139e-016
lhumerus 136.411 211.42 246.671
lradius 107.798
lwrist 10.4699
lhand 5.43149 -4.98092
lfingers 7.12502
lthumb 30.7815 22.462
rfemur -10.4267 -6.06931 26.9576
rtibia 38.0354
rfoot 17.3854 -4.08577
rtoes -16.8988
lfemur -15.2708 7.00486 -15.4393
ltibia 54.5684
lfoot 13.2286 -4.11513
ltoes -10.9048
53
root 22.8391 20.4053 0.804217 337.142 81.0371 345.937
lowerback 23.2642 -0.654827 1.03695
upperback 4.99206 -0.36349 -0.958294
thorax -7.49479 -0.0620358 -1.55252
lowerneck 3.50898 3.40079 -7.84583
upperneck 10.9688 4.63007 1.39541
head 2.70434 2.13832 1.85674
rclavicle -4.77083e-015 -5.1684e-015
rhumerus -45.6905 28.9123 -85.1644
rradius 86.6202
rwrist 9.46391
rhand -10.5553 16.3615
rfingers 7.12502
rthumb 15.4488 -13.0412
lclavicle -4.77083e-015 -5.1684e-015
lhumerus 137.884 211.893 246.923
lradius 106.45
lwrist 9.8932
lhand 5.56858 -4.93742
lfingers 7.12502
lthumb 30.9121 22.4808
rfemur -10.8177 -5.57986 27.0184
rtibia 36.2537
rfoot 16.9591 -4.54317
rtoes -16.7323
lfemur -16.0294 6.63995 -15.6186
ltibia 53.27
lfoot 12.8667 -3.74606
ltoes -9.92993
54
root 23.0154 20.3126 0.795256 338.264 81.2169 346.798
lowerback 23.8614 -0.639331 0.735285
upperback 4.93557 -0.403366 -0.91409
thorax -7.86492 -0.0751821 -1.32168
lowerneck 3.29538 3.34791 -7.78925
upperneck 10.9565 4.5916 1.19482
head 2.74559 2.11421 1.78616
rclavicle -2.65378e-014 1.66979e-014
rhumerus -44.1679 29.1306 -85.3375
rradius 85.1751
rwrist 10.3876
rhand -10.0856 16.2225
rfingers 7.12502
rthumb 15.9012 -13.1446
lclavicle -2.65378e-014 1.66979e-014
lhumerus 139.385 212.195 247.281
lradius 105.009
lwrist 9.35748
lhand 5.71452 -4.75773
lfingers 7.12502
lthumb 31.0513 22.634
rfemur -11.1257 -4.95451 26.9554
rtibia 34.3382
rfoot 16.4748 -5.23333
rtoes -16.1899
lfemur -16.7416 6.12452 -15.8729
ltibia 51.9231
lfoot 12.4574 -3.23499
ltoes -9.23217
55
root 23.1935 20.2121 0.784695 339.379 81.4336 347.676
lowerback 24.4611 -0.641308 0.470882
upperback 4.8808 -0.46096 -0.879086
thorax -8.23435 -0.096023 -1.1157
lowerneck 3.17923 3.29029 -7.75069
upperneck 10.8498 4.53313 1.01029
head 2.73739 2.08205 1.7191
rclavicle -7.15625e-015 1.86858e-014
rhumerus -42.7881 29.244 -85.5605
rradius 83.7727
rwrist 11.2453
rhand -9.69057 16.0861
rfingers 7.12502
rthumb 16.2816 -13.2503
lclavicle -7.15625e-015 1.86858e-014
lhumerus 140.827 212.373 247.737
lradius 103.505
lwrist 8.8421
lhand 5.82297 -4.51273
lfingers 7.12502
lthumb 31.1546 22.8592
rfemur -11.3227 -4.22984 26.8277
rtibia 32.2894
rfoot 15.848 -6.1283
rtoes -15.6695
lfemur -17.383 5.43197 -16.1379
ltibia 50.5507
lfoot 11.9479 -2.58776
ltoes -8.60619
56
root 23.3718 20.1071 0.77502 340.548 81.6707 348.558
lowerback 25.0083 -0.643362 0.203082
upperback 4.80931 -0.523742 -0.832575
thorax -8.59421 -0.118526 -0.891888
lowerneck 2.99959 3.22709 -7.72486
upperneck 10.7802 4.47251 0.840279
head 2.75281 2.04764 1.66166
rclavicle -1.08338e-014 -5.96354e-015
rhumerus -41.5557 29.3295 -85.8539
rradius 82.3696
rwrist 11.96
rhand -9.52303 15.988
rfingers 7.12502
rthumb 16.4429 -13.3352
lclavicle -1.08338e-014 -5.96354e-015
lhumerus 142.096 212.434 248.313
lradius 101.898
lwrist 8.4094
lhand 5.69211 -4.34813
lfingers 7.12502
lthumb 31.0299 23.0476
rfemur -11.519 -3.4122 26.6675
rtibia 30.1583
rfoot 15.2496 -7.07509
rtoes -15.6557
lfemur -18.0484 4.57975 -16.3924
ltibia 49.1514
lfoot 11.407 -1.77493
ltoes -8.10892
57
root 23.5517 20.001 0.76399 341.594 81.9418 349.249
lowerback 25.4591 -0.673237 -0.023309
upperback 4.72186 -0.614337 -0.758722
thorax -8.92197 -0.154609 -0.65102
lowerneck 2.93678 3.18456 -7.73167
upperneck 10.5962 4.42869 0.625487
head 2.70794 2.02227 1.5897
rclavicle 7.95139e-016 -5.56597e-015
rhumerus -40.366 29.4958 -86.1623
rradius 80.803
rwrist 12.3801
rhand -9.59998 15.9342
rfingers 7.12502
rthumb 16.3688 -13.395
lclavicle 7.95139e-016 -5.56597e-015
lhumerus 143.219 212.324 249.009
lradius 100.212
lwrist 7.98526
lhand 5.47033 -4.14584
lfingers 7.12502
lthumb 30.8185 23.2901
rfemur -11.8105 -2.55979 26.4738
rtibia 27.9908
rfoot 14.9305 -7.99028
rtoes -16.2092
lfemur -18.7563 3.55608 -16.6048
ltibia 47.7293
lfoot 10.8608 -0.709875
ltoes -8.30962
58
root 23.7309 19.8857 0.753381 342.241 82.1983 349.491
lowerback 25.8554 -0.717886 -0.172626
upperback 4.61752 -0.706123 -0.674479
thorax -9.24079 -0.192851 -0.440707
lowerneck 2.99878 3.15426 -7.75926
upperneck 10.3181 4.38239 0.452453
head 2.60774 1.99908 1.53001
rclavicle -3.926e-014 1.51076e-014
rhumerus -39.197 29.6716 -86.5113
rradius 79.0468
rwrist 12.6248
rhand -9.94091 15.9827
rfingers 7.12502
rthumb 16.0405 -13.3733
lclavicle -3.926e-014 1.51076e-014
lhumerus 144.223 212.085 249.775
lradius 98.4057
lwrist 7.52268
lhand 5.12695 -3.90979
lfingers 7.12502
lthumb 30.4911 23.5874
rfemur -12.2069 -1.61158 26.2955
rtibia 25.8706
rfoot 14.8475 -9.25265
rtoes -16.6346
lfemur -19.51 2.43632 -16.6933
ltibia 46.3163
lfoot 10.3842 0.455736
ltoes -9.15895
59
root 23.9129 19.758 0.741357 342.686 82.4684 349.478
lowerback 26.1492 -0.792257 -0.241324
upperback 4.50651 -0.818353 -0.605149
thorax -9.51558 -0.243232 -0.285169
lowerneck 3.19288 3.13896 -7.80781
upperneck 9.93314 4.33487 0.329271
head 2.44722 1.97934 1.48506
rclavicle -1.96797e-014 -1.03368e-014
rhumerus -37.9916 29.7397 -86.9897
rradius 77.0481
rwrist 12.7186
rhand -10.418 16.0156
rfingers 7.12502
rthumb 15.5811 -13.3767
lclavicle -1.96797e-014 -1.03368e-014
lhumerus 145.104 211.633 250.643
lradius 96.4071
lwrist 6.86984
lhand 4.7143 -3.72707
lfingers 7.12502
lthumb 30.0974 23.8425
rfemur -12.6737 -0.623706 26.0725
rtibia 23.863
rfoot 14.8626 -10.9235
rtoes -16.424
lfemur -20.3314 1.13478 -16.6981
ltibia 44.9422
lfoot 10.1337 1.80298
ltoes -9.35854
60
root 24.0951 19.6153 0.730001 342.868 82.7151 349.236
lowerback 26.4677 -0.888428 -0.267486
upperback 4.40013 -0.948284 -0.551259
thorax -9.79876 -0.302483 -0.163654
lowerneck 3.27268 3.1392 -7.7826
upperneck 9.62587 4.32027 0.210296
head 2.33342 1.97624 1.43373
rclavicle -1.04362e-014 1.19271e-014
rhumerus -36.6713 29.6338 -87.5793
rradius 74.7949
rwrist 12.6772
rhand -10.844 16.0474
rfingers 7.12502
rthumb 15.1707 -13.3765
lclavicle -1.04362e-014 1.19271e-014
lhumerus 145.927 210.958 251.556
lradius 94.1074
lwrist 6.0693
lhand 4.20348 -3.55129
lfingers 7.12502
lthumb 29.6099 24.1059
rfemur -13.0978 0.460604 25.8402
rtibia 22.0728
rfoot 14.8073 -12.9404
rtoes -15.225
lfemur -21.1865 -0.214869 -16.5761
ltibia 43.6689
lfoot 10.2294 3.1462
ltoes -8.37302
61
root 24.2771 19.4565 0.718868 342.694 82.9527 348.648
lowerback 26.7815 -0.988413 -0.232317
upperback 4.28294 -1.06511 -0.484641
thorax -10.0928 -0.357158 -0.0659646
lowerneck 3.30893 3.12934 -7.74863
upperneck 9.31642 4.29385 0.108349
head 2.2274 1.96773 1.38775
rclavicle -2.38542e-014 3.97569e-016
rhumerus -35.384 29.3338 -88.1909
rradius 72.3322
rwrist 12.4628
rhand -11.2403 16.0942
rfingers 7.12502
rthumb 14.789 -13.3582
lclavicle -2.38542e-014 3.97569e-016
lhumerus 146.7 210.182 252.585
lradius 91.4823
lwrist 5.1382
lhand 3.54482 -3.43464
lfingers 7.12502
lthumb 28.981 24.3324
rfemur -13.5881 1.44372 25.6252
rtibia 20.607
rfoot 14.6771 -15.0014
rtoes -13.3109
lfemur -22.1274 -1.66001 -16.331
ltibia 42.5321
lfoot 10.6111 4.4255
ltoes -6.43744
62
root 24.461 19.2788 0.705973 342.215 83.1722 347.809
lowerback 27.0696 -1.09928 -0.153844
upperback 4.19287 -1.18012 -0.409297
thorax -10.3438 -0.411541 0.0170278
lowerneck 3.33304 3.13284 -7.72547
upperneck 9.00583 4.28362 0.0350746
head 2.12226 1.96754 1.35347
rclavicle 1.2921e-015 3.97569e-016
rhumerus -34.1507 28.8952 -88.8167
rradius 69.731
rwrist 11.9936
rhand -11.5327 15.9925
rfingers 7.12502
rthumb 14.5073 -13.4803
lclavicle 1.2921e-015 3.97569e-016
lhumerus 147.523 209.309 253.651
lradius 88.5019
lwrist 4.0766
lhand 2.69144 -3.31004
lfingers 7.12502
lthumb 28.1657 24.5941
rfemur -14.1895 2.13375 25.4604
rtibia 19.5536
rfoot 14.5451 -16.738
rtoes -11.7419
lfemur -23.0783 -3.17903 -15.9713
ltibia 41.6132
lfoot 11.0114 5.60042
ltoes -3.65273
63
root 24.6472 19.0859 0.68951 341.836 83.3577 347.148
lowerback 27.402 -1.2089 -0.0358295
upperback 4.11237 -1.28355 -0.366922
thorax -10.6087 -0.46178 0.0378916
lowerneck 3.35287 3.15738 -7.74236
upperneck 8.70372 4.29077 0.108565
head 2.0169 1.97729 1.37387
rclavicle 2.28602e-015 -5.1684e-015
rhumerus -32.9785 28.2032 -89.4992
rradius 66.985
rwrist 11.2497
rhand -11.651 15.7943
rfingers 7.12502
rthumb 14.3933 -13.6866
lclavicle 2.28602e-015 -5.1684e-015
lhumerus 148.391 208.396 254.676
lradius 85.1936
lwrist 3.00624
lhand 1.68621 -3.26199
lfingers 7.12502
lthumb 27.2045 24.7966
rfemur -14.8774 2.26984 25.3419
rtibia 19.0327
rfoot 14.3933 -17.6927
rtoes -10.5019
lfemur -23.9924 -4.76715 -15.5801
ltibia 40.9919
lfoot 11.2489 6.53367
ltoes -2.03585
